Jump_normalized_pl15_filtered_grf
version=1
nRows=15
nColumns=37
inDegrees=yes
endheader
time		1_ground_force_vx		1_ground_force_vy		1_ground_force_vz		1_ground_force_px		1_ground_force_py		1_ground_force_pz		1_ground_torque_x		1_ground_torque_y		1_ground_torque_z		2_ground_force_vx		2_ground_force_vy		2_ground_force_vz		2_ground_force_px		2_ground_force_py		2_ground_force_pz		2_ground_torque_x		2_ground_torque_y		2_ground_torque_z		3_ground_force_vx		3_ground_force_vy		3_ground_force_vz		3_ground_force_px		3_ground_force_py		3_ground_force_pz		3_ground_torque_x		3_ground_torque_y		3_ground_torque_z		4_ground_force_vx		4_ground_force_vy		4_ground_force_vz		4_ground_force_px		4_ground_force_py		4_ground_force_pz		4_ground_torque_x		4_ground_torque_y		4_ground_torque_z		
1.276167		0.000000		0.000000		0.000000		0.107867		0.000000		0.205353		0.000000		0.000000		-0.000000		-0.000000		-0.000000		-0.000000		-0.145997		0.000000		0.260919		-0.000000		0.000000		-0.000000		-6.704250		324.580514		315.414400		0.374873		1.308902		1.915551		0.303782		-14.707372		-14.292043		-11.246171		440.006166		338.652335		-0.265795		1.308872		1.927590		-0.485254		18.985567		14.612310		
1.279399		0.000000		-0.000000		-0.000000		0.107867		0.000000		0.205353		-0.000000		-0.000000		0.000000		-0.000000		-0.000000		-0.000000		-0.145997		0.000000		0.260919		-0.000000		0.000000		-0.000000		-6.187368		325.245052		321.241235		0.374863		1.308857		1.915513		0.281685		-14.807118		-14.624845		-11.312138		444.355740		344.116052		-0.265818		1.308868		1.927595		-0.488022		19.170144		14.845660		
1.282631		0.000000		-0.000000		-0.000000		0.107867		0.000000		0.205353		-0.000000		-0.000000		0.000000		-0.000000		-0.000000		-0.000000		-0.145997		0.000000		0.260919		-0.000000		0.000000		-0.000000		-5.609792		325.122359		327.373655		0.374844		1.308813		1.915482		0.256813		-14.883947		-14.987019		-11.430516		448.145730		349.633393		-0.265834		1.308863		1.927602		-0.493194		19.336218		15.085691		
1.285864		0.000000		-0.000000		-0.000000		0.107867		0.000000		0.205353		-0.000000		-0.000000		0.000000		0.000000		-0.000000		-0.000000		-0.145997		0.000000		0.260919		-0.000000		0.000000		-0.000000		-5.056579		324.150239		333.665742		0.374816		1.308774		1.915471		0.232979		-14.935065		-15.373498		-11.561061		451.345415		355.164302		-0.265842		1.308855		1.927613		-0.498933		19.478395		15.327574		
1.289096		0.000000		-0.000000		-0.000000		0.107867		0.000000		0.205353		-0.000000		-0.000000		0.000000		0.000000		-0.000000		-0.000000		-0.145997		0.000000		0.260919		-0.000000		0.000000		-0.000000		-4.526355		322.314857		339.901151		0.374787		1.308746		1.915482		0.210077		-14.959293		-15.775520		-11.673237		453.887996		360.654512		-0.265845		1.308846		1.927629		-0.503867		19.591740		15.567386		
1.292328		-0.000000		-0.000000		-0.000000		0.107867		0.000000		0.205353		-0.000000		-0.000000		0.000000		0.000000		0.000000		0.000000		-0.145997		0.000000		0.260919		0.000000		-0.000000		0.000000		-3.997396		319.618500		345.838852		0.374760		1.308729		1.915512		0.187044		-14.955498		-16.182413		-11.733611		455.679522		366.063730		-0.265848		1.308837		1.927648		-0.506580		19.673253		15.804231		
1.295561		-0.000000		0.000000		0.000000		0.107867		0.000000		0.205353		0.000000		0.000000		-0.000000		0.000000		0.000000		0.000000		-0.145997		0.000000		0.260919		0.000000		-0.000000		0.000000		-3.424112		316.074596		351.263767		0.374741		1.308718		1.915557		0.161660		-14.922649		-16.584027		-11.714263		456.645928		371.378100		-0.265857		1.308829		1.927670		-0.505954		19.723157		16.040324		
1.298793		-0.000000		0.000000		0.000000		0.107867		0.000000		0.205353		0.000000		0.000000		-0.000000		0.000000		0.000000		0.000000		-0.145997		0.000000		0.260919		0.000000		-0.000000		0.000000		-2.745699		311.684059		356.021181		0.374727		1.308708		1.915605		0.130899		-14.859569		-16.973374		-11.608418		456.752494		376.613284		-0.265875		1.308822		1.927694		-0.501789		19.743738		16.279615		
1.302025		-0.000000		0.000000		0.000000		0.107867		0.000000		0.205353		0.000000		0.000000		-0.000000		-0.000000		0.000000		0.000000		-0.145997		0.000000		0.260919		0.000000		-0.000000		0.000000		-1.905209		306.449693		360.035407		0.374717		1.308694		1.915645		0.091799		-14.765719		-17.347654		-11.418778		456.037176		381.796677		-0.265900		1.308818		1.927721		-0.494235		19.738498		16.525172		
1.305258		-0.000000		0.000000		0.000000		0.107867		0.000000		0.205353		0.000000		0.000000		-0.000000		-0.000000		0.000000		0.000000		-0.145997		0.000000		0.260919		0.000000		-0.000000		0.000000		-0.840298		300.364912		363.251175		0.374709		1.308671		1.915675		0.040952		-14.639979		-17.705133		-11.156543		454.569351		386.953098		-0.265931		1.308817		1.927755		-0.483744		19.709976		16.778161		
1.308490		0.000000		0.000000		0.000000		0.107867		0.000000		0.205353		0.000000		0.000000		-0.000000		-0.000000		-0.000000		-0.000000		-0.145997		0.000000		0.260919		-0.000000		0.000000		-0.000000		0.486505		293.460408		365.608580		0.374701		1.308641		1.915694		-0.024007		-14.480723		-18.040858		-10.838754		452.436698		392.106419		-0.265964		1.308819		1.927798		-0.470990		19.660297		17.038690		
1.311722		0.000000		-0.000000		-0.000000		0.107867		0.000000		0.205353		-0.000000		-0.000000		0.000000		-0.000000		-0.000000		-0.000000		-0.145997		0.000000		0.260919		-0.000000		0.000000		-0.000000		2.060847		285.780275		366.986447		0.374690		1.308607		1.915712		-0.103012		-14.283908		-18.342808		-10.481956		449.680422		397.279799		-0.265994		1.308822		1.927853		-0.456655		19.590684		17.307815		
1.314955		0.000000		-0.000000		-0.000000		0.107867		0.000000		0.205353		-0.000000		-0.000000		0.000000		-0.000000		-0.000000		-0.000000		-0.145997		0.000000		0.260919		-0.000000		0.000000		-0.000000		3.827899		277.431820		367.243957		0.374677		1.308573		1.915736		-0.193811		-14.046535		-18.593791		-10.100330		446.305984		402.481831		-0.266020		1.308827		1.927921		-0.441363		19.502622		17.587603		
1.318187		0.000000		-0.000000		-0.000000		0.107867		0.000000		0.205353		-0.000000		-0.000000		0.000000		0.000000		-0.000000		-0.000000		-0.145997		0.000000		0.260919		-0.000000		0.000000		-0.000000		5.716563		268.538853		366.231195		0.374661		1.308542		1.915774		-0.293067		-13.766649		-18.774886		-9.704574		442.260865		407.689358		-0.266036		1.308830		1.928004		-0.425620		19.396541		17.880324		
1.321419		0.000000		-0.000000		-0.000000		0.107867		0.000000		0.205353		-0.000000		-0.000000		0.000000		0.000000		-0.000000		-0.000000		-0.145997		0.000000		0.260919		-0.000000		0.000000		-0.000000		7.629785		259.259643		363.864452		0.374644		1.308512		1.915826		-0.395722		-13.446452		-18.871779		-9.290324		437.500274		412.811262		-0.266044		1.308833		1.928099		-0.409246		19.272217		18.184653		
